<?xml version="1.0" encoding="UTF-8" standalone="no"?>
<svg
   xmlns:dc="http://purl.org/dc/elements/1.1/"
   xmlns:cc="http://creativecommons.org/ns#"
   xmlns:rdf="http://www.w3.org/1999/02/22-rdf-syntax-ns#"
   xmlns:svg="http://www.w3.org/2000/svg"
   xmlns="http://www.w3.org/2000/svg"
   xmlns:sodipodi="http://sodipodi.sourceforge.net/DTD/sodipodi-0.dtd"
   xmlns:inkscape="http://www.inkscape.org/namespaces/inkscape"
   sodipodi:docname="logo.svg"
   inkscape:version="1.0 (4035a4f, 2020-05-01)"
   id="svg8"
   version="1.1"
   viewBox="0 0 42.333333 31.749999"
   height="120"
   width="160">
  <defs
     id="defs2">
    <inkscape:path-effect
       hide_knots="false"
       only_selected="false"
       apply_with_radius="true"
       apply_no_radius="true"
       use_knot_distance="true"
       flexible="false"
       chamfer_steps="1"
       radius="41"
       mode="F"
       method="auto"
       unit="px"
       satellites_param="F,0,0,1,0,10.847917,0,1 @ F,0,0,1,0,10.847917,0,1 @ F,0,0,1,0,10.847917,0,1 @ F,0,0,1,0,10.847917,0,1 @ F,0,0,1,0,10.847917,0,1 @ F,0,0,1,0,10.847917,0,1 @ F,0,0,1,0,10.847917,0,1 @ F,0,0,1,0,10.847917,0,1 @ F,0,0,1,0,10.847917,0,1 @ F,0,0,1,0,10.847917,0,1 @ F,0,0,1,0,10.847917,0,1 @ F,0,0,1,0,10.847917,0,1 @ F,0,0,1,0,10.847917,0,1 @ F,0,0,1,0,10.847917,0,1"
       lpeversion="1"
       is_visible="true"
       id="path-effect856"
       effect="fillet_chamfer" />
    <inkscape:path-effect
       hide_knots="false"
       only_selected="false"
       apply_with_radius="true"
       apply_no_radius="true"
       use_knot_distance="true"
       flexible="false"
       chamfer_steps="1"
       radius="7"
       mode="F"
       method="auto"
       unit="px"
       satellites_param="F,0,0,1,0,1.8520833,0,1 @ F,0,0,1,0,1.8520833,0,1 @ F,0,0,1,0,1.8520833,0,1 @ F,0,0,1,0,1.8520833,0,1 @ F,0,0,1,0,1.8520833,0,1 @ F,0,0,1,0,1.8520833,0,1 @ F,0,0,1,0,1.8520833,0,1 @ F,0,0,1,0,1.8520833,0,1 @ F,0,0,1,0,1.8520833,0,1"
       lpeversion="1"
       is_visible="true"
       id="path-effect852"
       effect="fillet_chamfer" />
  </defs>
  <sodipodi:namedview
     inkscape:window-maximized="1"
     inkscape:window-y="0"
     inkscape:window-x="1920"
     inkscape:window-height="1043"
     inkscape:window-width="1920"
     units="px"
     fit-margin-bottom="0"
     fit-margin-right="0"
     fit-margin-left="0"
     fit-margin-top="0"
     inkscape:pagecheckerboard="true"
     showgrid="false"
     inkscape:document-rotation="0"
     inkscape:current-layer="layer1"
     inkscape:document-units="mm"
     inkscape:cy="63.605767"
     inkscape:cx="63.736155"
     inkscape:zoom="1"
     inkscape:pageshadow="2"
     inkscape:pageopacity="0.0"
     borderopacity="1.0"
     bordercolor="#666666"
     pagecolor="#ffffff"
     id="base" />
  <metadata
     id="metadata5">
    <rdf:RDF>
      <cc:Work
         rdf:about="">
        <dc:format>image/svg+xml</dc:format>
        <dc:type
           rdf:resource="http://purl.org/dc/dcmitype/StillImage" />
        <dc:title></dc:title>
      </cc:Work>
    </rdf:RDF>
  </metadata>
  <g
     transform="translate(-52.759775,-83.31529)"
     id="layer1"
     inkscape:groupmode="layer"
     inkscape:label="Layer 1">
    <path
       d="m 83.838876,83.862452 c -4.975895,0.235035 -3.538482,8.539443 -2.599325,11.507309 0.675608,2.019197 1.753158,2.130234 2.8267,0.291454 0.774758,-1.865087 4.981328,-11.121165 -0.211355,-11.797212 -0.0053,-5.29e-4 -0.01074,-0.0011 -0.01601,-0.0016 z m -12.889654,1.633493 c -0.867177,-7.94e-4 -1.569778,0.03825 -2.16059,0.101285 -6.533758,0.697058 -11.714808,3.712842 -13.852903,8.003646 -0.704577,1.413973 -1.169133,4.002037 -1.000456,5.572786 0.225087,2.096038 1.08898,4.195448 2.534214,6.151048 0.941067,1.2734 0.975561,3.0561 -0.153996,4.16822 l -3.142445,3.09387 a 0.81592363,0.81592363 0 0 0 0.753443,1.37718 l 7.602638,-1.72961 c 1.545664,-0.35163 3.95133,-0.0588 5.43946,0.48524 0.693013,0.25334 1.400046,0.4813 2.118217,0.68316 1.525434,0.42877 4.061847,0.88519 5.640999,1.01596 8.73638,0.72348 16.426217,-2.55475 19.162654,-8.06049 0.703144,-1.41472 1.166969,-4.00306 0.998389,-5.57382 -0.230669,-2.149315 -1.1323,-4.301594 -2.643248,-6.298328 -0.955479,-1.262673 -1.352354,-0.946504 -1.138949,0.619086 0.10442,0.766061 0.133657,2.710971 -0.298691,4.230748 -0.975781,3.430044 -3.678573,6.132834 -7.10861,7.108614 -1.519775,0.43235 -4.148093,0.43235 -5.66787,0 -3.430037,-0.97578 -6.13283,-3.67857 -7.108611,-7.108614 -0.432347,-1.519777 -0.431437,-4.147767 0.0016,-5.667354 0.792607,-2.781837 2.725885,-5.114404 5.312338,-6.409428 1.412859,-0.707411 1.819873,-1.14541 0.703832,-1.346171 l -0.03669,-0.0067 c -2.606461,-0.296786 -4.509381,-0.409025 -5.954676,-0.410311 z m 11.023616,13.618289 a 2.8415943,2.8415943 0 0 0 -2.810679,2.549716 2.8415943,2.8415943 0 0 0 2.534729,3.11816 2.8415943,2.8415943 0 0 0 3.118673,-2.53473 2.8415943,2.8415943 0 0 0 -2.535248,-3.11816 2.8415943,2.8415943 0 0 0 -0.01601,-0.0016 2.8415943,2.8415943 0 0 0 -0.291457,-0.01344 z"
       style="fill:#ffffff;fill-opacity:1;stroke-width:15;stroke-linecap:round;stroke-linejoin:round"
       id="path833" />
  </g>
</svg>
