<?xml version="1.0" encoding="UTF-8" standalone="no"?>
<!-- Created with Inkscape (http://www.inkscape.org/) -->

<svg
   xmlns:dc="http://purl.org/dc/elements/1.1/"
   xmlns:cc="http://creativecommons.org/ns#"
   xmlns:rdf="http://www.w3.org/1999/02/22-rdf-syntax-ns#"
   xmlns:svg="http://www.w3.org/2000/svg"
   xmlns="http://www.w3.org/2000/svg"
   xmlns:sodipodi="http://sodipodi.sourceforge.net/DTD/sodipodi-0.dtd"
   xmlns:inkscape="http://www.inkscape.org/namespaces/inkscape"
   version="1.1"
   id="svg2"
   xml:space="preserve"
   width="225"
   height="225"
   viewBox="0 0 225 225"
   sodipodi:docname="DNA_logo.svg"
   inkscape:version="0.92.4 (5da689c313, 2019-01-14)"><metadata
     id="metadata8"><rdf:RDF><cc:Work
         rdf:about=""><dc:format>image/svg+xml</dc:format><dc:type
           rdf:resource="http://purl.org/dc/dcmitype/StillImage" /><dc:title></dc:title></cc:Work></rdf:RDF></metadata><defs
     id="defs6"><clipPath
       clipPathUnits="userSpaceOnUse"
       id="clipPath18"><path
         d="m 255.056,362.814 c -1.809,-1.503 -2.055,-4.188 -0.551,-5.997 v 0 c 1.503,-1.809 4.189,-2.055 5.995,-0.553 v 0 c 28.173,23.421 69.07,23.421 97.242,0 v 0 c 0.796,-0.661 1.761,-0.983 2.72,-0.983 v 0 c 1.222,0 2.435,0.522 3.278,1.536 v 0 c 1.502,1.809 1.256,4.494 -0.553,5.997 v 0 c -15.664,13.022 -34.864,19.533 -54.065,19.533 v 0 c -19.201,0 -38.402,-6.511 -54.066,-19.533 m 278.178,10.425 c -4.762,-6.625 -8.238,-10.083 -12.755,-13.81 v 0 12.713 c 0,2.816 -1.758,3.203 -3.658,3.203 v 0 c -1.914,0 -3.687,-0.387 -3.687,-3.203 v 0 -34.625 c 0,-2.404 1.103,-3.43 3.687,-3.43 v 0 c 2.53,0 3.658,1.059 3.658,3.43 v 0 14.07 c 5.281,-3.979 9.606,-8.672 14.343,-15.539 v 0 l 0.148,-0.208 c 0.574,-0.807 1.288,-1.811 2.807,-1.811 v 0 c 1.863,0 4.139,1.557 4.139,3.375 v 0 c 0,0.851 -0.428,1.625 -0.889,2.331 v 0 c -3.966,6.159 -9.473,12.082 -14.822,15.958 v 0 c 4.863,3.482 9.068,7.852 13.196,13.709 v 0 c 0.614,0.871 0.9,1.625 0.9,2.37 v 0 c 0,1.925 -2.214,3.573 -4.027,3.573 v 0 c -1.529,0 -2.067,-0.685 -3.04,-2.106 m -36.941,-1.04 v -13.527 h -15.254 v 13.527 c 0,2.234 -1.059,3.146 -3.657,3.146 v 0 c -2.619,0 -3.689,-0.912 -3.689,-3.146 v 0 -34.852 c 0,-2.285 1.087,-3.26 3.631,-3.26 v 0 c 2.499,0 3.715,1.067 3.715,3.26 v 0 14.434 h 15.254 v -14.434 c 0,-2.255 1.129,-3.26 3.66,-3.26 v 0 c 1.583,0 3.686,0.338 3.686,3.26 v 0 34.852 c 0,2.234 -1.067,3.146 -3.686,3.146 v 0 c -2.635,0 -3.66,-0.881 -3.66,-3.146 m -50.809,2.693 c -3.349,0 -5.423,-1.906 -5.84,-5.37 v 0 c -1.325,-11.96 -3.86,-22.418 -6.796,-28.062 v 0 c -3.255,-0.413 -5.115,-2.449 -5.115,-5.614 v 0 -5.473 c 0,-2.406 1.103,-3.432 3.686,-3.432 v 0 c 2.584,0 3.687,1.026 3.687,3.432 v 0 3.486 c 0,0.16 0.04,0.681 0.567,0.681 v 0 h 23.28 c 0.34,0 0.567,-0.274 0.567,-0.681 v 0 -3.486 c 0,-2.374 1.129,-3.432 3.66,-3.432 v 0 c 2.478,0 3.685,1.123 3.685,3.432 v 0 5.473 c 0,2.875 -1.437,4.797 -4.055,5.444 v 0 27.987 c 0,3.412 -2.293,5.615 -5.842,5.615 v 0 z m 1.356,-7.521 c 0.064,0.418 0.247,0.63 0.544,0.63 v 0 h 7.514 c 0.398,0 0.538,-0.365 0.538,-0.68 v 0 -25.209 c 0,-0.315 -0.14,-0.681 -0.538,-0.681 v 0 h -13.83 c 2.728,6.872 4.619,15.372 5.772,25.94 M 341.132,354.822 c -2.349,-0.103 -4.172,-2.091 -4.069,-4.44 v 0 c 0.115,-2.664 0.123,-5.168 -0.026,-7.57 v 0 h -44.06 c -2.352,0 -4.258,-1.906 -4.258,-4.259 v 0 c 0,-2.352 1.906,-4.258 4.258,-4.258 v 0 h 42.668 c -1.142,-4.018 -3.034,-7.906 -6.022,-11.963 v 0 c -0.068,0.004 -0.133,0.021 -0.202,0.021 v 0 h -22.348 c -2.352,0 -4.258,-1.906 -4.258,-4.258 v 0 c 0,-2.353 1.906,-4.259 4.258,-4.259 v 0 h 14.952 c -4.053,-3.896 -9.112,-8.082 -15.435,-12.773 v 0 c -0.002,-0.002 -0.005,-0.003 -0.008,-0.005 v 0 c -27.328,-20.279 -34.935,-32.96 -33.911,-56.534 v 0 c 0.099,-2.287 1.986,-4.073 4.251,-4.073 v 0 c 0.063,0 0.126,0.001 0.188,0.003 v 0 c 2.35,0.103 4.172,2.091 4.07,4.44 v 0 c -0.115,2.664 -0.123,5.167 0.025,7.57 v 0 h 44.06 c 2.353,0 4.259,1.906 4.259,4.258 v 0 c 0,2.352 -1.906,4.258 -4.259,4.258 v 0 h -42.668 c 1.141,4.015 3.031,7.897 6.011,11.949 v 0 c 0.028,0 0.054,-0.008 0.081,-0.008 v 0 h 21.924 c 2.353,0 4.259,1.906 4.259,4.258 v 0 c 0,2.352 -1.906,4.258 -4.259,4.258 v 0 h -14.397 c 4.052,3.896 9.111,8.082 15.433,12.775 v 0 c 0.004,0.002 0.007,0.003 0.01,0.005 v 0 c 27.33,20.28 34.935,32.96 33.912,56.535 v 0 c -0.1,2.32 -2.037,4.071 -4.349,4.071 v 0 c -0.03,0 -0.06,0 -0.09,-10e-4 m -68.461,-4.07 c -0.764,-17.585 2.606,-30.368 22.563,-47.537 v 0 c 0.805,-0.692 1.792,-1.029 2.776,-1.029 v 0 c 1.197,0 2.387,0.502 3.229,1.481 v 0 c 1.534,1.782 1.333,4.472 -0.451,6.006 v 0 c -17.523,15.074 -20.284,25.138 -19.608,40.709 v 0 c 0.102,2.349 -1.72,4.337 -4.07,4.44 v 0 c -0.027,10e-4 -0.054,10e-4 -0.081,10e-4 v 0 c -2.274,0 -4.256,-1.75 -4.358,-4.071 m -28.726,0.951 c -26.044,-31.329 -26.044,-76.805 0,-108.132 v 0 c 0.842,-1.013 2.055,-1.535 3.277,-1.535 v 0 c 0.958,0 1.924,0.322 2.72,0.983 v 0 c 1.809,1.503 2.055,4.189 0.551,5.998 v 0 c -23.419,28.17 -23.419,69.067 0,97.24 v 0 c 1.504,1.81 1.257,4.495 -0.551,5.998 v 0 c -0.795,0.66 -1.76,0.982 -2.719,0.983 v 0 c -1.223,0 -2.436,-0.523 -3.278,-1.535 m 124.357,0.551 c -1.809,-1.504 -2.056,-4.189 -0.552,-5.999 v 0 c 23.42,-28.171 23.419,-69.066 -10e-4,-97.239 v 0 c -1.504,-1.808 -1.256,-4.494 0.553,-5.997 v 0 c 0.795,-0.661 1.76,-0.983 2.719,-0.983 v 0 c 1.222,0 2.435,0.523 3.276,1.537 v 0 c 26.044,31.327 26.044,76.802 0.002,108.128 v 0 c -0.842,1.013 -2.055,1.536 -3.277,1.536 v 0 c -0.96,0 -1.925,-0.323 -2.72,-0.983 m 240.492,-37.167 c -4.761,-6.626 -8.236,-10.082 -12.753,-13.809 v 0 12.711 c 0,2.816 -1.759,3.204 -3.66,3.204 v 0 c -1.914,0 -3.686,-0.388 -3.686,-3.204 v 0 -34.624 c 0,-2.405 1.102,-3.431 3.686,-3.431 v 0 c 2.532,0 3.66,1.057 3.66,3.431 v 0 14.069 c 5.28,-3.979 9.605,-8.671 14.343,-15.538 v 0 l 0.148,-0.208 c 0.574,-0.807 1.288,-1.811 2.805,-1.811 v 0 c 1.864,0 4.141,1.556 4.141,3.375 v 0 c 0,0.69 -0.258,1.366 -0.89,2.331 v 0 c -3.965,6.16 -9.472,12.082 -14.821,15.958 v 0 c 4.861,3.48 9.066,7.851 13.194,13.709 v 0 c 0.614,0.87 0.9,1.623 0.9,2.37 v 0 c 0,1.924 -2.214,3.573 -4.028,3.573 v 0 c -1.525,0 -2.063,-0.685 -3.039,-2.106 m -38.864,-0.258 -15.428,-26.054 v 24.987 c 0,2.212 -1.259,3.431 -3.545,3.431 v 0 c -2.443,0 -3.629,-1.123 -3.629,-3.431 v 0 -33.291 c 0,-2.756 1.924,-4.537 4.905,-4.537 v 0 c 1.947,0 3.275,0.735 4.308,2.393 v 0 l 15.457,26.191 v -25.153 c 0,-2.212 1.269,-3.431 3.573,-3.431 v 0 c 2.442,0 3.629,1.122 3.629,3.431 v 0 33.092 c 0,2.877 -1.926,4.736 -4.905,4.736 v 0 c -2.053,0 -3.356,-0.705 -4.365,-2.364 m -113.333,0.188 -10.376,-18.642 -10.149,18.218 c -1.092,1.945 -2.137,2.6 -4.143,2.6 v 0 c -2.745,0 -4.196,-1.51 -4.196,-4.366 v 0 -33.688 c 0,-2.307 1.001,-3.205 3.572,-3.205 v 0 c 2.47,0 3.432,0.898 3.432,3.205 v 0 24.696 l 7.513,-13.282 c 1.151,-2.019 2.373,-2.425 3.971,-2.425 v 0 c 0.808,0 1.509,0.138 2.075,0.406 v 0 c 0.643,0.289 1.263,0.967 1.897,2.077 v 0 l 7.569,13.444 v -24.916 c 0,-2.307 0.946,-3.205 3.375,-3.205 v 0 c 2.578,0 3.63,0.927 3.63,3.205 v 0 33.688 c 0,2.937 -1.353,4.366 -4.14,4.366 v 0 c -2.262,0 -3.244,-0.865 -4.03,-2.176 m 62.521,1.724 c -3.35,0 -5.423,-1.907 -5.839,-5.372 v 0 c -1.327,-11.961 -3.863,-22.421 -6.797,-28.062 v 0 c -3.255,-0.412 -5.115,-2.448 -5.115,-5.614 v 0 -5.473 c 0,-2.405 1.101,-3.431 3.685,-3.431 v 0 c 2.585,0 3.688,1.026 3.688,3.431 v 0 3.487 c 0,0.33 0.149,0.68 0.566,0.68 v 0 h 23.282 c 0.338,0 0.565,-0.272 0.565,-0.68 v 0 -3.487 c 0,-2.374 1.128,-3.431 3.66,-3.431 v 0 c 2.48,0 3.686,1.123 3.686,3.431 v 0 5.473 c 0,2.876 -1.436,4.798 -4.054,5.444 v 0 27.988 c 0,3.411 -2.293,5.616 -5.842,5.616 v 0 z m 1.356,-7.522 c 0.063,0.419 0.245,0.63 0.544,0.63 v 0 h 7.513 c 0.398,0 0.539,-0.366 0.539,-0.68 v 0 -25.209 c 0,-0.315 -0.141,-0.681 -0.539,-0.681 v 0 h -13.829 c 2.727,6.868 4.619,15.369 5.772,25.94 m -40.285,7.522 c -3.877,0 -5.927,-2.02 -5.927,-5.842 v 0 -29.209 c 0,-3.32 2.089,-5.303 5.587,-5.303 v 0 h 14.688 c 2.933,0 3.971,0.92 3.971,3.517 v 0 c 0,2.811 -1.519,3.375 -3.971,3.375 v 0 h -12.533 c -0.224,0 -0.396,0.038 -0.396,0.511 v 0 10.122 h 11.201 c 2.852,0 3.913,0.953 3.913,3.516 v 0 c 0,2.811 -1.498,3.375 -3.913,3.375 v 0 h -11.201 v 8.366 c 0,0.408 0.228,0.68 0.565,0.68 v 0 h 12.478 c 2.443,0 3.857,0.571 3.857,3.489 v 0 c 0,2.846 -1.414,3.403 -3.857,3.403 v 0 z M 316.952,291.648 c -1.533,-1.785 -1.329,-4.473 0.455,-6.007 v 0 c 17.563,-15.095 20.331,-25.166 19.656,-40.747 v 0 c -0.103,-2.349 1.72,-4.337 4.069,-4.44 v 0 c 0.063,-0.002 0.126,-0.003 0.188,-0.003 v 0 c 2.267,0 4.152,1.786 4.251,4.073 v 0 c 0.764,17.596 -2.613,30.39 -22.613,47.578 v 0 c -0.804,0.69 -1.791,1.028 -2.774,1.028 v 0 c -1.198,0 -2.389,-0.502 -3.232,-1.482 m 161.695,-30.101 c -0.456,-0.435 -1.387,-1.776 -4.181,-8.337 v 0 c -2.134,-5.004 -4.266,-10.692 -6.336,-16.901 v 0 c -2.178,-6.454 -3.283,-10.517 -3.283,-12.076 v 0 c 0,-1.705 1.691,-2.808 4.309,-2.808 v 0 c 1.71,0 2.557,0.778 3.02,2.749 v 0 c 1.153,3.991 2.033,6.793 2.593,8.51 v 0 h 13.951 c 0.973,-3.194 1.779,-6.051 2.398,-8.502 v 0 c 0.552,-2.061 1.271,-2.757 2.851,-2.757 v 0 c 2.728,0 4.425,1.185 4.425,3.093 v 0 c 0,1.17 -0.832,4.375 -2.544,9.799 v 0 c -2.056,6.468 -4.159,12.373 -6.251,17.554 v 0 c -2.324,5.714 -3.884,8.924 -4.771,9.811 v 0 c -0.674,0.676 -1.635,1.003 -2.939,1.003 v 0 c -1.384,0 -2.445,-0.372 -3.242,-1.138 m 3.134,-8.438 c 1.677,-3.876 3.311,-8.42 4.866,-13.533 v 0 h -9.814 c 1.765,5.382 3.426,9.927 4.948,13.533 m 28.32,9.124 c -3.477,0 -5.813,-2.346 -5.813,-5.842 v 0 -29.208 c 0,-3.618 1.946,-5.303 6.125,-5.303 v 0 h 7.06 c 8.957,0 14.095,4.516 14.095,12.392 v 0 c 0,7.732 -5.282,12.165 -14.493,12.165 v 0 h -5.442 v 8.223 c 0,0.409 0.227,0.682 0.566,0.682 v 0 h 12.023 c 2.783,0 3.971,1.026 3.971,3.431 v 0 c 0,2.426 -1.188,3.46 -3.971,3.46 v 0 z m 1.532,-32.782 v 9.953 h 5.727 c 4.498,0 6.778,-1.727 6.778,-5.132 v 0 c 0,-3.701 -2.199,-5.501 -6.722,-5.501 v 0 h -5.217 c -0.339,0 -0.566,0.274 -0.566,0.68 m -70.543,32.782 c -3.394,0 -5.311,-1.769 -5.698,-5.258 v 0 c -1.5,-13.647 -4.219,-25.364 -7.095,-30.577 v 0 c -0.506,-0.91 -0.564,-1.574 -0.564,-1.993 v 0 c 0,-2.146 2.845,-3.037 4.368,-3.037 v 0 c 1.142,0 1.776,0.402 2.52,1.6 v 0 c 3.502,5.861 6.256,18.451 7.431,28.329 v 0 c 0.066,0.619 0.126,1.103 0.185,1.584 v 0 c 0.068,0.555 0.135,1.105 0.208,1.83 v 0 c 0.096,0.631 0.455,0.631 0.573,0.631 v 0 h 8.024 c 0.398,0 0.539,-0.367 0.539,-0.682 v 0 -29.803 c 0,-2.405 1.102,-3.432 3.686,-3.432 v 0 c 1.716,0 3.686,0.39 3.686,3.432 v 0 31.534 c 0,3.496 -2.346,5.842 -5.84,5.842 v 0 z m -83.348,-23.224 c -28.173,-23.42 -69.067,-23.42 -97.24,0 v 0 c -1.808,1.502 -4.494,1.255 -5.997,-0.551 v 0 c -1.503,-1.81 -1.257,-4.496 0.552,-5.999 v 0 c 15.665,-13.021 34.861,-19.531 54.063,-19.531 v 0 c 19.199,0 38.404,6.513 54.066,19.531 v 0 c 1.808,1.503 2.056,4.189 0.553,5.997 v 0 c -0.841,1.014 -2.054,1.537 -3.275,1.537 v 0 c -0.961,0 -1.926,-0.323 -2.722,-0.984 m 17.672,-7.665 c -1.664,-1.663 -1.664,-4.357 0,-6.021 v 0 l 11.13,-11.13 c 0.831,-0.832 1.921,-1.248 3.01,-1.248 v 0 c 1.09,0 2.181,0.416 3.012,1.248 v 0 c 1.663,1.663 1.663,4.358 0,6.022 v 0 l -11.131,11.129 c -0.83,0.832 -1.92,1.248 -3.01,1.248 v 0 c -1.09,0 -2.18,-0.416 -3.011,-1.248"
         id="path16"
         inkscape:connector-curvature="0" /></clipPath><linearGradient
       x1="0"
       y1="0"
       x2="1"
       y2="0"
       gradientUnits="userSpaceOnUse"
       gradientTransform="matrix(222.6498,-222.64882,-222.6498,-222.64882,300.35011,407.66287)"
       spreadMethod="pad"
       id="linearGradient28"><stop
         style="stop-opacity:1;stop-color:#80cc28"
         offset="0"
         id="stop24" /><stop
         style="stop-opacity:1;stop-color:#0994dc"
         offset="1"
         id="stop26" /></linearGradient></defs><sodipodi:namedview
     pagecolor="#ffffff"
     bordercolor="#666666"
     borderopacity="1"
     objecttolerance="10"
     gridtolerance="10"
     guidetolerance="10"
     inkscape:pageopacity="0"
     inkscape:pageshadow="2"
     inkscape:window-width="1920"
     inkscape:window-height="1043"
     id="namedview4"
     showgrid="false"
     fit-margin-top="0"
     fit-margin-left="0"
     fit-margin-right="0"
     fit-margin-bottom="0"
     inkscape:zoom="2.3787285"
     inkscape:cx="225.4628"
     inkscape:cy="140.43137"
     inkscape:window-x="1920"
     inkscape:window-y="0"
     inkscape:window-maximized="1"
     inkscape:current-layer="g10" /><g
     id="g10"
     inkscape:groupmode="layer"
     inkscape:label="101_ok"
     transform="matrix(1.3333333,0,0,-1.3333333,-299.21599,508.90399)"><g
       id="g22"><path
         inkscape:connector-curvature="0"
         id="path30"
         style="fill:url(#linearGradient28);stroke:none;stroke-width:0.99605346"
         d="m 254.93513,362.22214 c -1.80187,-1.49707 -2.0469,-4.17147 -0.54883,-5.97332 v 0 c 1.49707,-1.80186 4.17248,-2.04689 5.97136,-0.55082 v 0 c 28.06187,23.32852 68.79756,23.32852 96.85844,0 v 0 c 0.79286,-0.65839 1.75405,-0.97912 2.70927,-0.97912 v 0 c 1.21718,0 2.4254,0.51994 3.26507,1.52994 v 0 c 1.49608,1.80185 1.25105,4.47625 -0.55082,5.97332 v 0 C 347.03741,375.19271 327.91314,381.678 308.78787,381.678 v 0 c -19.12526,0 -38.25053,-6.48529 -53.85274,-19.45586 m 85.73648,-7.96045 c -2.33973,-0.10259 -4.15554,-2.08274 -4.05295,-4.42246 v 0 c 0.11455,-2.65348 0.12252,-5.1476 -0.0259,-7.54011 v 0 h -43.88621 c -2.34273,0 -4.24121,-1.89848 -4.24121,-4.24218 v 0 c 0,-2.34272 1.89848,-4.24119 4.24121,-4.24119 v 0 h 42.4997 c -1.1375,-4.00213 -3.02204,-7.87478 -5.99825,-11.91576 v 0 c -0.0677,0.004 -0.13247,0.0209 -0.2012,0.0209 v 0 h -22.25985 c -2.34273,0 -4.24121,-1.89848 -4.24121,-4.24119 v 0 c 0,-2.34371 1.89848,-4.24218 4.24121,-4.24218 v 0 h 14.89302 c -4.03701,-3.88062 -9.07606,-8.05009 -15.37412,-12.72256 v 0 c -0.002,-0.002 -0.005,-0.003 -0.008,-0.005 v 0 c -27.22021,-20.19893 -34.7972,-32.82985 -33.77724,-56.31077 v 0 c 0.0986,-2.27796 1.97817,-4.05691 4.23423,-4.05691 v 0 c 0.0627,0 0.1255,9.9e-4 0.18726,0.003 v 0 c 2.34073,0.10259 4.15554,2.08274 4.05395,4.42246 v 0 c -0.11455,2.65348 -0.12252,5.1466 0.0249,7.54011 v 0 h 43.88621 c 2.34372,0 4.2422,1.89848 4.2422,4.24119 v 0 c 0,2.34271 -1.89848,4.24118 -4.2422,4.24118 v 0 h -42.4997 c 1.1365,3.99915 3.01904,7.86582 5.98729,11.90182 v 0 c 0.0279,0 0.0538,-0.008 0.0807,-0.008 v 0 h 21.83752 c 2.34372,0 4.2422,1.89848 4.2422,4.24119 v 0 c 0,2.34271 -1.89848,4.24118 -4.2422,4.24118 v 0 h -14.34021 c 4.03602,3.88062 9.07506,8.05009 15.37213,12.72456 v 0 c 0.004,0.002 0.007,0.003 0.01,0.005 v 0 c 27.2222,20.19992 34.7972,32.82985 33.77824,56.31176 v 0 c -0.0996,2.31083 -2.02897,4.05492 -4.33185,4.05492 v 0 c -0.0299,0 -0.0598,0 -0.0897,-0.001 m -68.19096,-4.05392 c -0.76099,-17.51557 2.59572,-30.24809 22.474,-47.34929 v 0 c 0.80183,-0.68927 1.78493,-1.02494 2.76505,-1.02494 v 0 c 1.19228,0 2.37759,0.50002 3.21627,1.47515 v 0 c 1.52795,1.77497 1.32774,4.45434 -0.44922,5.98229 v 0 c -17.45389,15.01447 -20.204,25.03873 -19.53066,40.54825 v 0 c 0.10159,2.33972 -1.71322,4.31987 -4.05395,4.42246 v 0 c -0.0269,0.001 -0.0538,0.001 -0.0807,0.001 v 0 c -2.26503,0 -4.23921,-1.74309 -4.34081,-4.05492 m -28.6127,0.94724 c -25.94127,-31.20529 -25.94127,-76.50171 0,-107.70501 v 0 c 0.83868,-1.009 2.0469,-1.52894 3.26408,-1.52894 v 0 c 0.95422,0 1.91641,0.32073 2.70927,0.97912 v 0 c 1.80187,1.49706 2.04689,4.17246 0.54883,5.97431 v 0 c -23.32663,28.05877 -23.32663,68.79427 0,96.85603 v 0 c 1.49806,1.80285 1.25204,4.47725 -0.54883,5.97431 v 0 c -0.79186,0.65739 -1.75306,0.97812 -2.70827,0.97912 v 0 c -1.21818,0 -2.4264,-0.52094 -3.26508,-1.52894 m 123.8665,0.54882 c -1.80187,-1.49806 -2.04789,-4.17245 -0.54983,-5.97531 v 0 c 23.32763,-28.05976 23.32663,-68.79327 -9.9e-4,-96.85502 v 0 c -1.49807,-1.80086 -1.25105,-4.47626 0.55082,-5.97332 v 0 c 0.79186,-0.65839 1.75305,-0.97912 2.70827,-0.97912 v 0 c 1.21718,0 2.4254,0.52093 3.26308,1.53093 v 0 c 25.94127,31.2033 25.94127,76.49873 0.002,107.70103 v 0 c -0.83868,1.009 -2.04689,1.52993 -3.26407,1.52993 v 0 c -0.95622,0 -1.91741,-0.32172 -2.70927,-0.97912 m -51.14746,-60.36668 c -1.52695,-1.77795 -1.32376,-4.45533 0.4532,-5.98328 v 0 c 17.49373,-15.03539 20.25081,-25.06662 19.57847,-40.5861 v 0 c -0.10259,-2.33972 1.71322,-4.31987 4.05295,-4.42246 v 0 c 0.0628,-0.002 0.12551,-0.003 0.18726,-0.003 v 0 c 2.25806,0 4.13563,1.77895 4.23424,4.05691 v 0 c 0.76098,17.52652 -2.6027,30.27 -22.52381,47.39013 v 0 c -0.80083,0.68728 -1.78394,1.02394 -2.76306,1.02394 v 0 c -1.19327,0 -2.37958,-0.50002 -3.21925,-1.47615 m 40.62911,-52.43114 c -28.06188,-23.32752 -68.79458,-23.32752 -96.85645,0 v 0 c -1.80087,1.49607 -4.47628,1.25005 -5.97335,-0.54882 v 0 c -1.49707,-1.80285 -1.25204,-4.47825 0.54983,-5.97531 v 0 C 270.5393,219.41229 289.65958,212.928 308.78584,212.928 v 0 c 19.12327,0 38.25252,6.48728 53.85275,19.45388 v 0 c 1.80086,1.49706 2.04789,4.17246 0.55081,5.97332 v 0 c -0.83768,1.00999 -2.04589,1.53093 -3.26208,1.53093 v 0 c -0.95721,0 -1.9184,-0.32173 -2.71126,-0.98012"
         sodipodi:nodetypes="cccccccccccccccccccccscccccccccscccccccccccccccccccscccccccccscccccccccccccccccccccccccccccccccccccccccccccccccccccccccccccccccccccccccccccccccccccccccccccc" /></g></g></svg>