<?xml version="1.0" encoding="UTF-8" standalone="no"?>
<svg
   xmlns:dc="http://purl.org/dc/elements/1.1/"
   xmlns:cc="http://creativecommons.org/ns#"
   xmlns:rdf="http://www.w3.org/1999/02/22-rdf-syntax-ns#"
   xmlns:svg="http://www.w3.org/2000/svg"
   xmlns="http://www.w3.org/2000/svg"
   xmlns:sodipodi="http://sodipodi.sourceforge.net/DTD/sodipodi-0.dtd"
   xmlns:inkscape="http://www.inkscape.org/namespaces/inkscape"
   width="180"
   height="58"
   viewBox="0 0 47.625 15.345833"
   version="1.1"
   id="svg8"
   inkscape:version="0.92.4 (5da689c313, 2019-01-14)"
   sodipodi:docname="logo3.svg">
  <defs
     id="defs2" />
  <sodipodi:namedview
     id="base"
     pagecolor="#ffffff"
     bordercolor="#666666"
     borderopacity="1.0"
     inkscape:pageopacity="0.0"
     inkscape:pageshadow="2"
     inkscape:zoom="5.6"
     inkscape:cx="69.49203"
     inkscape:cy="11.521973"
     inkscape:document-units="mm"
     inkscape:current-layer="layer1"
     inkscape:document-rotation="0"
     showgrid="false"
     fit-margin-top="2"
     fit-margin-left="2"
     fit-margin-right="2"
     fit-margin-bottom="2"
     units="px"
     inkscape:pagecheckerboard="true"
     inkscape:window-width="1920"
     inkscape:window-height="1043"
     inkscape:window-x="1920"
     inkscape:window-y="0"
     inkscape:window-maximized="1" />
  <metadata
     id="metadata5">
    <rdf:RDF>
      <cc:Work
         rdf:about="">
        <dc:format>image/svg+xml</dc:format>
        <dc:type
           rdf:resource="http://purl.org/dc/dcmitype/StillImage" />
        <dc:title />
      </cc:Work>
    </rdf:RDF>
  </metadata>
  <g
     inkscape:label="Layer 1"
     inkscape:groupmode="layer"
     id="layer1"
     transform="translate(-49.626164,-74.31462)">
    <g
       aria-label="Mail"
       style="font-style:normal;font-weight:normal;font-size:17.00259972px;line-height:1.25;font-family:sans-serif;letter-spacing:0px;word-spacing:0px;fill:#ffffff;fill-opacity:1;stroke:none;stroke-width:0.42506501"
       id="text1162">
      <path
         d="m 50.15533,88.888359 0.255039,-13.772106 h 1.887289 l 2.431372,11.170708 2.448374,-11.170708 h 1.870286 l 0.255039,13.772106 h -1.547237 l -0.153023,-9.997529 -2.329356,9.997529 h -1.088167 l -2.312353,-9.997529 -0.153024,9.997529 z"
         style="font-style:normal;font-variant:normal;font-weight:normal;font-stretch:normal;font-family:Oswald;-inkscape-font-specification:Oswald;fill:#ffffff;stroke-width:0.42506501"
         id="path819" />
      <path
         d="m 63.028955,89.02438 q -0.578088,0 -1.020156,-0.32305 -0.442067,-0.340052 -0.697106,-0.85013 -0.255039,-0.52708 -0.255039,-1.105168 0,-0.918141 0.306047,-1.547237 0.306046,-0.629096 0.833127,-1.054161 0.544083,-0.442068 1.24119,-0.765117 0.714109,-0.32305 1.496228,-0.629096 v -0.697107 q 0,-0.595091 -0.06801,-0.986151 -0.06801,-0.39106 -0.289044,-0.578088 -0.204031,-0.204031 -0.629096,-0.204031 -0.374057,0 -0.612094,0.170026 -0.221034,0.170026 -0.323049,0.493075 -0.102016,0.306047 -0.102016,0.731112 v 0.493075 l -1.802275,-0.06801 q 0.03401,-1.63225 0.748114,-2.397367 0.714109,-0.782119 2.210338,-0.782119 1.462223,0 2.074317,0.799122 0.612094,0.799122 0.612094,2.312353 v 4.488687 q 0,0.45907 0.017,0.884135 0.03401,0.425065 0.06801,0.799122 0.05101,0.357055 0.08501,0.680104 h -1.666255 q -0.05101,-0.272042 -0.136021,-0.680104 -0.06801,-0.425065 -0.102016,-0.765117 -0.170026,0.578088 -0.663101,1.088166 -0.476073,0.493076 -1.326203,0.493076 z m 0.714109,-1.564239 q 0.272042,0 0.510078,-0.153024 0.238037,-0.153023 0.425065,-0.340052 0.187029,-0.204031 0.255039,-0.323049 V 83.85559 q -0.425065,0.238036 -0.799122,0.476072 -0.374057,0.238037 -0.663101,0.510078 -0.272042,0.255039 -0.442068,0.595091 -0.153023,0.32305 -0.153023,0.748115 0,0.595091 0.221034,0.935143 0.221034,0.340052 0.646098,0.340052 z"
         style="font-style:normal;font-variant:normal;font-weight:normal;font-stretch:normal;font-family:Oswald;-inkscape-font-specification:Oswald;fill:#ffffff;stroke-width:0.42506501"
         id="path821" />
      <path
         d="m 68.619091,88.888359 v -9.827503 h 1.819278 v 9.827503 z m 0,-11.289726 v -1.904291 h 1.819278 v 1.904291 z"
         style="font-style:normal;font-variant:normal;font-weight:normal;font-stretch:normal;font-family:Oswald;-inkscape-font-specification:Oswald;fill:#ffffff;stroke-width:0.42506501"
         id="path823" />
      <path
         d="M 72.555459,88.888359 V 75.116253 h 1.819278 v 13.772106 z"
         style="font-style:normal;font-variant:normal;font-weight:normal;font-stretch:normal;font-family:Oswald;-inkscape-font-specification:Oswald;fill:#ffffff;stroke-width:0.42506501"
         id="path825" />
    </g>
    <g
       transform="matrix(1.1989629,0,0,1.1989629,77.79915,72.345807)"
       id="g976"
       style="fill:#ffffff;fill-opacity:0.5">
      <path
         style="fill:#ffffff;fill-opacity:0.5;fill-rule:evenodd"
         d="M 0,4 A 2,2 0 0 1 2,2 h 12 a 2,2 0 0 1 2,2 v 8 a 2,2 0 0 1 -2,2 H 2 A 2,2 0 0 1 0,12 Z M 2,3 A 1,1 0 0 0 1,4 v 0.217 l 7,4.2 7,-4.2 V 4 A 1,1 0 0 0 14,3 Z M 15,5.383 10.242,8.238 15,11.114 V 5.384 Z M 14.966,12.261 9.271,8.82 8,9.583 6.728,8.82 1.034,12.26 A 1,1 0 0 0 2,13 h 12 a 1,1 0 0 0 0.966,-0.739 z M 1,11.114 5.758,8.238 1,5.383 v 5.73 z"
         id="path965"
         inkscape:connector-curvature="0" />
    </g>
  </g>
</svg>
