<?xml version="1.0" encoding="UTF-8" standalone="no"?>
<svg
   xmlns:dc="http://purl.org/dc/elements/1.1/"
   xmlns:cc="http://creativecommons.org/ns#"
   xmlns:rdf="http://www.w3.org/1999/02/22-rdf-syntax-ns#"
   xmlns:svg="http://www.w3.org/2000/svg"
   xmlns="http://www.w3.org/2000/svg"
   xmlns:sodipodi="http://sodipodi.sourceforge.net/DTD/sodipodi-0.dtd"
   xmlns:inkscape="http://www.inkscape.org/namespaces/inkscape"
   width="248"
   height="56"
   viewBox="0 0 65.616667 14.816666"
   version="1.1"
   id="svg8"
   inkscape:version="1.0 (4035a4f, 2020-05-01)"
   sodipodi:docname="logo2.svg">
  <defs
     id="defs2" />
  <sodipodi:namedview
     id="base"
     pagecolor="#ffffff"
     bordercolor="#666666"
     borderopacity="1.0"
     inkscape:pageopacity="0.0"
     inkscape:pageshadow="2"
     inkscape:zoom="1.979899"
     inkscape:cx="45.300296"
     inkscape:cy="51.154214"
     inkscape:document-units="mm"
     inkscape:current-layer="layer1"
     inkscape:document-rotation="0"
     showgrid="false"
     fit-margin-top="2"
     fit-margin-left="2"
     fit-margin-right="2"
     fit-margin-bottom="2"
     units="px"
     inkscape:pagecheckerboard="true"
     inkscape:window-width="1920"
     inkscape:window-height="1043"
     inkscape:window-x="1920"
     inkscape:window-y="0"
     inkscape:window-maximized="1" />
  <metadata
     id="metadata5">
    <rdf:RDF>
      <cc:Work
         rdf:about="">
        <dc:format>image/svg+xml</dc:format>
        <dc:type
           rdf:resource="http://purl.org/dc/dcmitype/StillImage" />
        <dc:title></dc:title>
      </cc:Work>
    </rdf:RDF>
  </metadata>
  <g
     inkscape:label="Layer 1"
     inkscape:groupmode="layer"
     id="layer1"
     transform="translate(-31.664644,-74.715199)">
    <text
       xml:space="preserve"
       style="font-style:normal;font-weight:normal;font-size:17.0026px;line-height:1.25;font-family:sans-serif;letter-spacing:0px;word-spacing:0px;fill:#ffffff;fill-opacity:1;stroke:none;stroke-width:0.425065;"
       x="49.118172"
       y="88.888359"
       id="text1162"><tspan
         sodipodi:role="line"
         id="tspan1160"
         x="49.118172"
         y="88.888359"
         style="font-style:normal;font-variant:normal;font-weight:normal;font-stretch:normal;font-family:Oswald;-inkscape-font-specification:Oswald;fill:#ffffff;stroke-width:0.425065;">Mail</tspan></text>
    <g
       transform="matrix(1.1989629,0,0,1.1989629,77.79915,72.345807)"
       id="g976"
       style="fill:#ffffff;fill-opacity:0.5">
      <path
         style="fill:#ffffff;fill-opacity:0.5"
         fill-rule="evenodd"
         d="M 0,4 A 2,2 0 0 1 2,2 h 12 a 2,2 0 0 1 2,2 v 8 a 2,2 0 0 1 -2,2 H 2 A 2,2 0 0 1 0,12 Z M 2,3 A 1,1 0 0 0 1,4 v 0.217 l 7,4.2 7,-4.2 V 4 A 1,1 0 0 0 14,3 Z M 15,5.383 10.242,8.238 15,11.114 V 5.384 Z M 14.966,12.261 9.271,8.82 8,9.583 6.728,8.82 1.034,12.26 A 1,1 0 0 0 2,13 h 12 a 1,1 0 0 0 0.966,-0.739 z M 1,11.114 5.758,8.238 1,5.383 v 5.73 z"
         id="path965" />
    </g>
  </g>
</svg>
