<?xml version="1.0" encoding="UTF-8" standalone="no"?>
<svg
   xmlns:dc="http://purl.org/dc/elements/1.1/"
   xmlns:cc="http://creativecommons.org/ns#"
   xmlns:rdf="http://www.w3.org/1999/02/22-rdf-syntax-ns#"
   xmlns:svg="http://www.w3.org/2000/svg"
   xmlns="http://www.w3.org/2000/svg"
   xmlns:sodipodi="http://sodipodi.sourceforge.net/DTD/sodipodi-0.dtd"
   xmlns:inkscape="http://www.inkscape.org/namespaces/inkscape"
   sodipodi:docname="mini.svg"
   inkscape:version="1.0 (4035a4f, 2020-05-01)"
   id="svg8"
   version="1.1"
   viewBox="0 0 26.458334 26.458334"
   height="100"
   width="100">
  <defs
     id="defs2" />
  <sodipodi:namedview
     inkscape:window-maximized="1"
     inkscape:window-y="0"
     inkscape:window-x="1920"
     inkscape:window-height="1043"
     inkscape:window-width="1920"
     inkscape:pagecheckerboard="true"
     units="px"
     fit-margin-bottom="0"
     fit-margin-right="0"
     fit-margin-left="0"
     fit-margin-top="0"
     showgrid="false"
     inkscape:document-rotation="0"
     inkscape:current-layer="layer1"
     inkscape:document-units="mm"
     inkscape:cy="87.287513"
     inkscape:cx="267.90845"
     inkscape:zoom="1.4"
     inkscape:pageshadow="2"
     inkscape:pageopacity="0.0"
     borderopacity="1.0"
     bordercolor="#666666"
     pagecolor="#ffffff"
     id="base" />
  <metadata
     id="metadata5">
    <rdf:RDF>
      <cc:Work
         rdf:about="">
        <dc:format>image/svg+xml</dc:format>
        <dc:type
           rdf:resource="http://purl.org/dc/dcmitype/StillImage" />
        <dc:title></dc:title>
      </cc:Work>
    </rdf:RDF>
  </metadata>
  <g
     transform="translate(-59.602277,-128.937)"
     id="layer1"
     inkscape:groupmode="layer"
     inkscape:label="Layer 1">
    <circle
       r="13.229167"
       cy="142.16617"
       cx="72.831444"
       id="path839"
       style="fill:#e6e6e6;fill-opacity:1;stroke:none;stroke-width:0.0264583;stroke-linecap:round;stroke-linejoin:round;stroke-miterlimit:4;stroke-dasharray:none" />
    <path
       d="m 72.275711,141.74904 c 0.07806,0.32609 -0.401051,0.26611 -0.541986,0.12975 -0.381926,-0.36954 -0.105432,-0.97953 0.282488,-1.21372 0.693897,-0.41892 1.562002,0.0149 1.885457,0.69472 0.474683,0.99771 -0.13404,2.15408 -1.106963,2.55719 -1.296752,0.5373 -2.749777,-0.25244 -3.228927,-1.5192 -0.602962,-1.59408 0.370388,-3.34726 1.931437,-3.90066 1.890639,-0.67024 3.94577,0.48806 4.572398,2.34368 0.73846,2.18677 -0.605562,4.5449 -2.755911,5.24413 -2.482664,0.80728 -5.144474,-0.72295 -5.915869,-3.16815 -0.876509,-2.77839 0.84025,-5.74433 3.580385,-6.5876 3.074018,-0.94603 6.344412,0.95749 7.25934,3.99262 1.015744,3.36956 -1.0747,6.94465 -4.40486,7.93107"
       sodipodi:t0="0"
       sodipodi:argument="-17.513733"
       sodipodi:radius="6.6876068"
       sodipodi:revolution="3"
       sodipodi:expansion="1"
       sodipodi:cy="141.74904"
       sodipodi:cx="72.275711"
       id="path1041"
       style="fill:#c83737;fill-rule:evenodd;stroke:#000000;stroke-width:0.264583"
       sodipodi:type="spiral" />
  </g>
</svg>
