<?xml version="1.0" encoding="UTF-8" standalone="no"?>
<svg
   xmlns:dc="http://purl.org/dc/elements/1.1/"
   xmlns:cc="http://creativecommons.org/ns#"
   xmlns:rdf="http://www.w3.org/1999/02/22-rdf-syntax-ns#"
   xmlns:svg="http://www.w3.org/2000/svg"
   xmlns="http://www.w3.org/2000/svg"
   xmlns:sodipodi="http://sodipodi.sourceforge.net/DTD/sodipodi-0.dtd"
   xmlns:inkscape="http://www.inkscape.org/namespaces/inkscape"
   sodipodi:docname="popp.svg"
   inkscape:version="1.0 (4035a4f, 2020-05-01)"
   id="svg8"
   version="1.1"
   viewBox="0 0 26.458334 26.458334"
   height="100"
   width="100">
  <defs
     id="defs2" />
  <sodipodi:namedview
     inkscape:window-maximized="1"
     inkscape:window-y="0"
     inkscape:window-x="1920"
     inkscape:window-height="1043"
     inkscape:window-width="1920"
     inkscape:pagecheckerboard="true"
     units="px"
     fit-margin-bottom="0"
     fit-margin-right="0"
     fit-margin-left="0"
     fit-margin-top="0"
     showgrid="false"
     inkscape:document-rotation="0"
     inkscape:current-layer="layer1"
     inkscape:document-units="mm"
     inkscape:cy="-41.724328"
     inkscape:cx="196.67815"
     inkscape:zoom="1.4"
     inkscape:pageshadow="2"
     inkscape:pageopacity="0.0"
     borderopacity="1.0"
     bordercolor="#666666"
     pagecolor="#ffffff"
     id="base" />
  <metadata
     id="metadata5">
    <rdf:RDF>
      <cc:Work
         rdf:about="">
        <dc:format>image/svg+xml</dc:format>
        <dc:type
           rdf:resource="http://purl.org/dc/dcmitype/StillImage" />
        <dc:title></dc:title>
      </cc:Work>
    </rdf:RDF>
  </metadata>
  <g
     transform="translate(-59.602277,-128.937)"
     id="layer1"
     inkscape:groupmode="layer"
     inkscape:label="Layer 1">
    <circle
       r="13.229167"
       cy="142.16617"
       cx="72.831444"
       id="path839"
       style="fill:#550000;fill-opacity:1;stroke:none;stroke-width:0.0264583;stroke-linecap:round;stroke-linejoin:round;stroke-miterlimit:4;stroke-dasharray:none" />
    <path
       d="m 66.341923,147.35647 v 8.43515 h -2.627109 v -21.9541 h 2.627109 v 2.4141 q 0.823634,-1.42006 2.073285,-2.10169 1.263852,-0.69583 3.010525,-0.69583 2.896919,0 4.700393,2.3005 1.817675,2.30049 1.817675,6.04944 0,3.74896 -1.817675,6.04945 -1.803474,2.3005 -4.700393,2.3005 -1.746673,0 -3.010525,-0.68163 -1.249651,-0.69583 -2.073285,-2.11589 z m 8.889567,-5.55243 q 0,-2.88271 -1.19285,-4.51578 -1.178648,-1.64727 -3.251934,-1.64727 -2.073285,0 -3.266135,1.64727 -1.178648,1.63307 -1.178648,4.51578 0,2.88272 1.178648,4.52999 1.19285,1.63307 3.266135,1.63307 2.073286,0 3.251934,-1.63307 1.19285,-1.64727 1.19285,-4.52999 z"
       style="font-style:normal;font-weight:normal;font-size:29.0828px;line-height:1.25;font-family:sans-serif;letter-spacing:-4.85684px;word-spacing:0px;fill:#ffffff;fill-opacity:1;stroke:none;stroke-width:0.728216;stroke-miterlimit:4;stroke-dasharray:none"
       id="path1153" />
    <path
       d="m 79.065408,146.13522 h 2.882719 v 3.60695 h -2.882719 z m 0,-17.59452 h 2.882719 v 9.30138 l -0.284011,5.06961 h -2.300495 l -0.298213,-5.06961 z"
       style="font-style:normal;font-weight:normal;font-size:29.0828px;line-height:1.25;font-family:sans-serif;letter-spacing:-4.85684px;word-spacing:0px;fill:#ffffff;fill-opacity:1;stroke:none;stroke-width:0.728216;stroke-miterlimit:4;stroke-dasharray:none"
       id="path1155" />
  </g>
</svg>
