<?xml version="1.0" encoding="UTF-8" standalone="no"?>
<svg
   xmlns:dc="http://purl.org/dc/elements/1.1/"
   xmlns:cc="http://creativecommons.org/ns#"
   xmlns:rdf="http://www.w3.org/1999/02/22-rdf-syntax-ns#"
   xmlns:svg="http://www.w3.org/2000/svg"
   xmlns="http://www.w3.org/2000/svg"
   xmlns:sodipodi="http://sodipodi.sourceforge.net/DTD/sodipodi-0.dtd"
   xmlns:inkscape="http://www.inkscape.org/namespaces/inkscape"
   sodipodi:docname="sr.svg"
   inkscape:version="1.0 (4035a4f, 2020-05-01)"
   id="svg8"
   version="1.1"
   viewBox="0 0 26.458334 26.458334"
   height="100"
   width="100">
  <defs
     id="defs2" />
  <sodipodi:namedview
     inkscape:window-maximized="1"
     inkscape:window-y="0"
     inkscape:window-x="1920"
     inkscape:window-height="1043"
     inkscape:window-width="1920"
     inkscape:pagecheckerboard="true"
     units="px"
     fit-margin-bottom="0"
     fit-margin-right="0"
     fit-margin-left="0"
     fit-margin-top="0"
     showgrid="false"
     inkscape:document-rotation="0"
     inkscape:current-layer="layer1"
     inkscape:document-units="mm"
     inkscape:cy="86.93037"
     inkscape:cx="267.90845"
     inkscape:zoom="1.4"
     inkscape:pageshadow="2"
     inkscape:pageopacity="0.0"
     borderopacity="1.0"
     bordercolor="#666666"
     pagecolor="#ffffff"
     id="base" />
  <metadata
     id="metadata5">
    <rdf:RDF>
      <cc:Work
         rdf:about="">
        <dc:format>image/svg+xml</dc:format>
        <dc:type
           rdf:resource="http://purl.org/dc/dcmitype/StillImage" />
        <dc:title></dc:title>
      </cc:Work>
    </rdf:RDF>
  </metadata>
  <g
     transform="translate(-59.602277,-128.937)"
     id="layer1"
     inkscape:groupmode="layer"
     inkscape:label="Layer 1">
    <circle
       r="13.229167"
       cy="142.16617"
       cx="72.831444"
       id="path839"
       style="fill:#008080;fill-opacity:1;stroke:none;stroke-width:0.0264583;stroke-linecap:round;stroke-linejoin:round;stroke-miterlimit:4;stroke-dasharray:none" />
    <path
       d="m 77.948285,147.28301 c -1.640196,1.6402 -0.869218,-0.92355 -3.012238,-0.0359 -2.14302,0.88767 0.214985,2.15534 -2.104603,2.15534 -2.319588,0 0.03842,-1.26767 -2.104603,-2.15534 -2.14302,-0.88767 -1.372042,1.67608 -3.012238,0.0359 -1.640197,-1.6402 0.923547,-0.86922 0.03588,-3.01224 -0.887668,-2.14302 -2.155344,0.21499 -2.155344,-2.1046 -1e-6,-2.31959 1.267676,0.0384 2.155344,-2.1046 0.887668,-2.14302 -1.676076,-1.37205 -0.03588,-3.01224 1.640196,-1.6402 0.869218,0.92354 3.012237,0.0359 2.14302,-0.88767 -0.214984,-2.15535 2.104604,-2.15535 2.319587,0 -0.03842,1.26768 2.104603,2.15535 2.14302,0.88766 1.372042,-1.67608 3.012238,-0.0359 1.640196,1.64019 -0.923547,0.86922 -0.03588,3.01223 0.887668,2.14302 2.155345,-0.21498 2.155345,2.10461 0,2.31959 -1.267677,-0.0384 -2.155344,2.1046 -0.887668,2.14302 1.676075,1.37204 0.03588,3.01224 z"
       inkscape:randomized="0"
       inkscape:rounded="0.77"
       inkscape:flatsided="false"
       sodipodi:arg2="1.1780972"
       sodipodi:arg1="0.78539816"
       sodipodi:r2="5.4995933"
       sodipodi:r1="7.2363062"
       sodipodi:cy="142.16617"
       sodipodi:cx="72.831444"
       sodipodi:sides="8"
       id="path1021"
       style="fill:#3ba4a4;fill-opacity:1;stroke:none;stroke-width:0.0264583;stroke-linecap:round;stroke-linejoin:round;stroke-miterlimit:4;stroke-dasharray:none"
       sodipodi:type="star" />
  </g>
</svg>
